<svg width="37" height="37" viewBox="0 0 37 37" fill="none" xmlns="http://www.w3.org/2000/svg">
<path d="M34.75 16.875H33.0275C32.6577 13.5804 31.1795 10.5091 28.8352 8.16481C26.4909 5.82051 23.4196 4.34229 20.125 3.9725V2.25C20.125 1.81902 19.9538 1.4057 19.649 1.10095C19.3443 0.796205 18.931 0.625 18.5 0.625C18.069 0.625 17.6557 0.796205 17.351 1.10095C17.0462 1.4057 16.875 1.81902 16.875 2.25V3.9725C13.5804 4.34229 10.5091 5.82051 8.16481 8.16481C5.82051 10.5091 4.34229 13.5804 3.9725 16.875H2.25C1.81902 16.875 1.4057 17.0462 1.10095 17.351C0.796205 17.6557 0.625 18.069 0.625 18.5C0.625 18.931 0.796205 19.3443 1.10095 19.649C1.4057 19.9538 1.81902 20.125 2.25 20.125H3.9725C4.34229 23.4196 5.82051 26.4909 8.16481 28.8352C10.5091 31.1795 13.5804 32.6577 16.875 33.0275V34.75C16.875 35.181 17.0462 35.5943 17.351 35.899C17.6557 36.2038 18.069 36.375 18.5 36.375C18.931 36.375 19.3443 36.2038 19.649 35.899C19.9538 35.5943 20.125 35.181 20.125 34.75V33.0275C23.4196 32.6577 26.4909 31.1795 28.8352 28.8352C31.1795 26.4909 32.6577 23.4196 33.0275 20.125H34.75C35.181 20.125 35.5943 19.9538 35.899 19.649C36.2038 19.3443 36.375 18.931 36.375 18.5C36.375 18.069 36.2038 17.6557 35.899 17.351C35.5943 17.0462 35.181 16.875 34.75 16.875ZM20.125 29.745V28.25C20.125 27.819 19.9538 27.4057 19.649 27.101C19.3443 26.7962 18.931 26.625 18.5 26.625C18.069 26.625 17.6557 26.7962 17.351 27.101C17.0462 27.4057 16.875 27.819 16.875 28.25V29.745C14.449 29.3923 12.2018 28.2652 10.4683 26.5317C8.7348 24.7982 7.60773 22.551 7.255 20.125H8.75C9.18098 20.125 9.5943 19.9538 9.89905 19.649C10.2038 19.3443 10.375 18.931 10.375 18.5C10.375 18.069 10.2038 17.6557 9.89905 17.351C9.5943 17.0462 9.18098 16.875 8.75 16.875H7.255C7.60773 14.449 8.7348 12.2018 10.4683 10.4683C12.2018 8.7348 14.449 7.60773 16.875 7.255V8.75C16.875 9.18098 17.0462 9.5943 17.351 9.89905C17.6557 10.2038 18.069 10.375 18.5 10.375C18.931 10.375 19.3443 10.2038 19.649 9.89905C19.9538 9.5943 20.125 9.18098 20.125 8.75V7.255C22.551 7.60773 24.7982 8.7348 26.5317 10.4683C28.2652 12.2018 29.3923 14.449 29.745 16.875H28.25C27.819 16.875 27.4057 17.0462 27.101 17.351C26.7962 17.6557 26.625 18.069 26.625 18.5C26.625 18.931 26.7962 19.3443 27.101 19.649C27.4057 19.9538 27.819 20.125 28.25 20.125H29.745C29.3923 22.551 28.2652 24.7982 26.5317 26.5317C24.7982 28.2652 22.551 29.3923 20.125 29.745Z" fill="black"/>
<path d="M18.5 13.625C17.5358 13.625 16.5933 13.9109 15.7916 14.4466C14.9899 14.9823 14.3651 15.7436 13.9961 16.6344C13.6271 17.5252 13.5306 18.5054 13.7187 19.4511C13.9068 20.3967 14.3711 21.2654 15.0529 21.9471C15.7346 22.6289 16.6033 23.0932 17.5489 23.2813C18.4946 23.4694 19.4748 23.3729 20.3656 23.0039C21.2564 22.6349 22.0177 22.0101 22.5534 21.2084C23.0891 20.4067 23.375 19.4642 23.375 18.5C23.375 17.2071 22.8614 15.9671 21.9471 15.0529C21.0329 14.1386 19.7929 13.625 18.5 13.625ZM18.5 20.125C18.1786 20.125 17.8644 20.0297 17.5972 19.8511C17.33 19.6726 17.1217 19.4188 16.9987 19.1219C16.8757 18.8249 16.8435 18.4982 16.9062 18.183C16.9689 17.8678 17.1237 17.5782 17.351 17.351C17.5782 17.1237 17.8678 16.9689 18.183 16.9062C18.4982 16.8435 18.8249 16.8757 19.1219 16.9987C19.4188 17.1217 19.6726 17.33 19.8511 17.5972C20.0297 17.8644 20.125 18.1786 20.125 18.5C20.125 18.931 19.9538 19.3443 19.6491 19.649C19.3443 19.9538 18.931 20.125 18.5 20.125Z" fill="black"/>
</svg>
