<svg width="39" height="39" viewBox="0 0 39 39" fill="none" xmlns="http://www.w3.org/2000/svg">
<g clip-path="url(#clip0_12_507)">
<path d="M19.5005 38.4252C15.7574 38.4252 12.0984 37.3153 8.98615 35.2358C5.87391 33.1562 3.44821 30.2005 2.0158 26.7424C0.583395 23.2842 0.208612 19.479 0.938847 15.8078C1.66908 12.1367 3.47154 8.76454 6.11828 6.1178C8.76503 3.47105 12.1372 1.66859 15.8083 0.938359C19.4795 0.208124 23.2847 0.582907 26.7429 2.01532C30.201 3.44772 33.1567 5.87342 35.2362 8.98567C37.3158 12.0979 38.4257 15.7569 38.4257 19.5C38.42 24.5175 36.4243 29.3279 32.8763 32.8759C29.3284 36.4238 24.518 38.4195 19.5005 38.4252ZM19.5005 3.1405C16.2649 3.1405 13.1019 4.09997 10.4116 5.89757C7.72133 7.69518 5.62449 10.2502 4.38628 13.2395C3.14807 16.2288 2.8241 19.5181 3.45534 22.6916C4.08657 25.865 5.64466 28.78 7.93257 31.0679C10.2205 33.3558 13.1355 34.9139 16.3089 35.5451C19.4823 36.1763 22.7717 35.8524 25.761 34.6142C28.7503 33.376 31.3053 31.2791 33.1029 28.5888C34.9005 25.8985 35.8599 22.7356 35.8599 19.5C35.8551 15.1627 34.1299 11.0044 31.063 7.93748C27.996 4.87055 23.8378 3.14539 19.5005 3.1405Z" fill="black"/>
<path d="M19.4997 28.86C20.5642 28.86 21.4271 27.997 21.4271 26.9325C21.4271 25.8681 20.5642 25.0051 19.4997 25.0051C18.4352 25.0051 17.5723 25.8681 17.5723 26.9325C17.5723 27.997 18.4352 28.86 19.4997 28.86Z" fill="black"/>
<path d="M19.4681 22.1366C19.151 22.137 18.846 22.015 18.6166 21.7961C18.3872 21.5772 18.251 21.2782 18.2365 20.9615L17.8003 11.8447C17.7907 11.6158 17.8277 11.3874 17.9088 11.1732C17.99 10.9589 18.1137 10.7634 18.2726 10.5983C18.4314 10.4332 18.6221 10.3021 18.833 10.2127C19.0439 10.1234 19.2708 10.0777 19.4999 10.0784C19.7294 10.0785 19.9564 10.1251 20.1674 10.2154C20.3783 10.3058 20.5687 10.438 20.727 10.6041C20.8854 10.7702 21.0083 10.9667 21.0885 11.1817C21.1686 11.3967 21.2043 11.6258 21.1933 11.855L20.6935 20.9697C20.677 21.2839 20.5408 21.5799 20.3129 21.7969C20.085 22.0139 19.7827 22.1355 19.4681 22.1366Z" fill="black"/>
</g>
<defs>
<clipPath id="clip0_12_507">
<rect width="39" height="39" fill="white"/>
</clipPath>
</defs>
</svg>
