<svg width="35" height="35" viewBox="0 0 35 35" fill="none" xmlns="http://www.w3.org/2000/svg">
<path d="M17.4996 13.8493C18.1905 13.8493 18.7548 14.4122 18.7548 15.1032C18.7548 15.7337 19.2673 16.2447 19.8978 16.2447C20.5269 16.2447 21.0394 15.7337 21.0394 15.1032C21.0394 13.5542 20.0303 12.2471 18.6411 11.7692V11.1214C18.6411 10.4923 18.1301 9.97839 17.4996 9.97839C16.8676 9.97839 16.3566 10.4923 16.3566 11.1214V11.7692C14.9674 12.2471 13.9612 13.5542 13.9612 15.1032C13.9612 17.0566 15.5475 18.643 17.4996 18.643C18.1905 18.643 18.7548 19.2073 18.7548 19.8983C18.7548 20.5907 18.1905 21.1535 17.4996 21.1535C16.8086 21.1535 16.2457 20.5907 16.2457 19.8983C16.2457 19.2677 15.7332 18.7553 15.1027 18.7553C14.4708 18.7553 13.9612 19.2677 13.9612 19.8983C13.9612 21.4472 14.9674 22.7529 16.3566 23.2308V23.8786C16.3566 24.5105 16.8676 25.023 17.4996 25.023C18.1301 25.023 18.6411 24.5105 18.6411 23.8786V23.2308C20.0303 22.7529 21.0394 21.4472 21.0394 19.8983C21.0394 17.9462 19.4516 16.3584 17.4996 16.3584C16.8086 16.3584 16.2457 15.7956 16.2457 15.1032C16.2457 14.4122 16.8086 13.8493 17.4996 13.8493ZM27.0711 23.844C27.631 24.1391 28.3206 23.9246 28.6142 23.369C29.5643 21.5739 30.0653 19.5441 30.0653 17.5C30.0653 10.5729 24.4266 4.93569 17.4996 4.93569C10.5711 4.93569 4.93382 10.5729 4.93382 17.5C4.93382 24.4285 10.5711 30.0657 17.4996 30.0657C19.5135 30.0657 21.5144 29.5792 23.2865 28.6564C23.8465 28.3671 24.0639 27.6746 23.7731 27.1161C23.4823 26.559 22.7927 26.3373 22.2313 26.6295C20.7644 27.3954 19.1709 27.7826 17.4996 27.7826C11.8307 27.7826 7.21693 23.1703 7.21693 17.5C7.21693 11.8325 11.8307 7.2188 17.4996 7.2188C23.1685 7.2188 27.7822 11.8325 27.7822 17.5C27.7822 19.1742 27.3705 20.834 26.596 22.2994C26.2995 22.858 26.5125 23.5489 27.0711 23.844ZM17.4996 0.363708C14.1901 0.363708 10.977 1.31093 8.20877 3.10027C7.67758 3.44288 7.52643 4.1497 7.86904 4.67945C8.21309 5.2092 8.91702 5.35891 9.44965 5.01918C11.845 3.47023 14.632 2.6497 17.4996 2.6497C25.6891 2.6497 32.3498 9.31189 32.3498 17.5C32.3498 25.6895 25.6891 32.3517 17.4996 32.3517C9.31002 32.3517 2.64783 25.6895 2.64783 17.5C2.64783 14.6598 3.45253 11.8973 4.97701 9.51486C5.31674 8.98223 5.16127 8.27542 4.62864 7.93569C4.09745 7.59595 3.39063 7.75142 3.05234 8.28261C1.29322 11.0336 0.363281 14.2236 0.363281 17.5C0.363281 26.9506 8.04898 34.6363 17.4996 34.6363C26.9487 34.6363 34.6358 26.9506 34.6358 17.5C34.6358 8.05229 26.9487 0.363708 17.4996 0.363708Z" fill="black"/>
</svg>
