<svg width="47" height="47" viewBox="0 0 47 47" fill="none" xmlns="http://www.w3.org/2000/svg">
<path d="M23.4102 46.8203C36.3392 46.8203 46.8203 36.3392 46.8203 23.4102C46.8203 10.4811 36.3392 0 23.4102 0C10.4811 0 0 10.4811 0 23.4102C0 36.3392 10.4811 46.8203 23.4102 46.8203Z" fill="#52B36E"/>
<path d="M46.7641 25.0395C46.7454 25.0114 46.7173 24.9833 46.6892 24.9552C42.6159 20.8912 38.5519 16.8272 34.4879 12.7539C34.235 12.501 33.9541 12.3325 33.617 12.2295C30.6392 11.3586 27.6615 10.4784 24.6837 9.59818C23.8877 9.36408 23.0918 9.36408 22.2959 9.59818C20.7976 10.0477 19.2994 10.4878 17.8011 10.9279C16.3122 11.368 14.8327 11.8081 13.3438 12.2388C13.0161 12.3325 12.7351 12.4917 12.5104 12.7445C12.2108 13.091 12.0984 13.4936 12.0984 13.9431C12.0984 16.2092 12.0984 18.466 12.0984 20.7321C12.0984 21.2377 12.1078 21.7527 12.1265 22.2584C12.1733 23.4383 12.3512 24.5994 12.6509 25.7325C13.4562 28.8039 15.0012 31.4445 17.2393 33.6919C21.3033 37.7559 25.3766 41.8293 29.4406 45.8933C29.4781 45.9307 29.5062 45.9682 29.5249 46.0057C38.992 43.4493 46.0712 35.1246 46.7641 25.0395Z" fill="#2CAB61"/>
<path d="M23.4101 37.4562C23.204 37.4562 22.998 37.4188 22.8014 37.3345C19.6551 36.0516 16.9769 33.8885 15.0479 31.0793C13.0721 28.1952 12.0327 24.8241 12.0327 21.322V13.7464C12.0327 13.0441 12.5009 12.4167 13.1751 12.2107L22.3145 9.51388C23.0261 9.30787 23.7752 9.30787 24.4869 9.51388L33.6262 12.2107C34.3005 12.4074 34.7687 13.0441 34.7687 13.7464V21.322C34.7687 24.8241 33.7292 28.2045 31.7534 31.0793C29.8244 33.8885 27.1463 36.0516 24 37.3345C23.8221 37.4188 23.6161 37.4562 23.4101 37.4562ZM23.4101 10.6469C23.1666 10.6469 22.9231 10.6844 22.689 10.7499L13.5497 13.4468C13.4186 13.4842 13.325 13.6153 13.325 13.7558V21.3313C13.325 24.5807 14.2895 27.6989 16.1154 30.3676C17.904 32.9709 20.3855 34.9748 23.2977 36.164C23.3726 36.1921 23.4662 36.1921 23.5411 36.164C26.4534 34.9748 28.9348 32.9709 30.7234 30.3676C32.5494 27.6989 33.5139 24.5807 33.5139 21.3313V13.7558C33.5139 13.6153 33.4202 13.4936 33.2891 13.4468L24.1498 10.7499C23.897 10.675 23.6535 10.6469 23.4101 10.6469Z" fill="white"/>
</svg>
