<svg width="32" height="32" viewBox="0 0 32 32" fill="none" xmlns="http://www.w3.org/2000/svg">
<path d="M30.434 8.44178C29.6898 8.00474 28.7955 7.99429 28.0442 8.41456C26.4265 9.31827 25.0337 10.3116 23.9047 11.367C23.5681 11.6811 23.375 12.1357 23.375 12.6141V30.5888C23.375 31.1574 23.8376 31.62 24.4062 31.62H30.5938C31.1624 31.62 31.625 31.1574 31.625 30.5888V10.5191C31.625 9.65597 31.1798 8.87951 30.434 8.44178ZM30.9375 30.5888C30.9375 30.7785 30.7834 30.9326 30.5938 30.9326H24.4062C24.2166 30.9326 24.0625 30.7785 24.0625 30.5888V12.6142C24.0625 12.3258 24.1759 12.0542 24.374 11.8692C25.4627 10.8517 26.8102 9.89131 28.3792 9.01481C28.6417 8.86844 28.9283 8.79529 29.2147 8.79529C29.5144 8.79529 29.8143 8.87518 30.0862 9.03461C30.6193 9.34784 30.9375 9.90272 30.9375 10.5191V30.5888ZM18.7465 15.3168C18.0019 14.8797 17.1083 14.8693 16.3567 15.2896C14.739 16.1933 13.3462 17.1866 12.2172 18.242C11.8806 18.5561 11.6875 19.0107 11.6875 19.4891V30.5888C11.6875 31.1574 12.1501 31.62 12.7188 31.62H18.9062C19.4749 31.62 19.9375 31.1574 19.9375 30.5888V17.394C19.9375 16.5309 19.4923 15.7545 18.7465 15.3168ZM19.25 30.5888C19.25 30.7785 19.0959 30.9326 18.9062 30.9326H12.7188C12.5291 30.9326 12.375 30.7785 12.375 30.5888V19.4892C12.375 19.2008 12.4884 18.9292 12.6865 18.7442C13.7752 17.7267 15.1227 16.7663 16.6917 15.8898C16.9542 15.7434 17.2408 15.6703 17.5272 15.6703C17.8269 15.6703 18.1268 15.7502 18.3987 15.9096C18.9318 16.2228 19.25 16.7777 19.25 17.3941V30.5888ZM7.05897 21.5043C6.31407 21.0672 5.42046 21.0568 4.66916 21.4771C3.05147 22.3808 1.65866 23.3741 0.529719 24.4295C0.19305 24.7436 0 25.1982 0 25.6766V30.5888C0 31.1574 0.462619 31.62 1.03125 31.62H7.21875C7.78738 31.62 8.25 31.1574 8.25 30.5888V23.5815C8.25 22.7184 7.80484 21.942 7.05897 21.5043ZM7.5625 30.5888C7.5625 30.7785 7.40843 30.9326 7.21875 30.9326H1.03125C0.841569 30.9326 0.6875 30.7785 0.6875 30.5888V25.6767C0.6875 25.3883 0.800938 25.1167 0.999006 24.9317C2.08766 23.9142 3.43516 22.9538 5.00417 22.0773C5.26666 21.9309 5.55335 21.8578 5.83969 21.8578C6.13944 21.8578 6.43926 21.9377 6.71117 22.0971C7.24426 22.4103 7.5625 22.9652 7.5625 23.5816V30.5888ZM23.845 7.67137C24.0957 5.32858 24.1229 3.04181 23.9259 0.874606C23.8802 0.367712 23.4475 -0.00724987 22.9346 0.000106381C20.3884 0.0833626 18.0435 0.517725 15.9653 1.29185C15.6104 1.42412 15.3627 1.72587 15.3022 2.09918C15.2425 2.47043 15.3814 2.83302 15.6749 3.06835L16.8135 3.98376C16.131 4.9972 13.1538 8.90131 6.61712 10.9816C5.84265 11.2277 5.01318 11.4056 4.21121 11.5775C1.94363 12.0632 -0.197794 12.5224 0.0177373 14.4389C0.0647623 14.8622 0.316869 15.4594 1.25276 15.8999C2.06951 16.2842 3.24809 16.4789 4.60233 16.4789C7.43153 16.4789 11.0265 15.6293 13.6842 13.8844C17.8824 11.1294 20.5139 8.38939 21.2655 7.56329L22.2289 8.33508C22.514 8.56436 22.903 8.61771 23.2411 8.47705C23.5805 8.3357 23.8064 8.03458 23.845 7.67137ZM23.1615 7.59822C23.1448 7.75634 23.0269 7.82179 22.9769 7.84263C22.8681 7.88759 22.7496 7.8715 22.6586 7.79862L21.4404 6.82244C21.295 6.70564 21.0832 6.72674 20.963 6.86878C20.9362 6.90068 18.2164 10.0881 13.3069 13.3098C9.62032 15.7308 3.85914 16.3669 1.54557 15.2779C1.02527 15.0332 0.741262 14.7254 0.701319 14.3625C0.562031 13.1272 1.99911 12.7549 4.35531 12.2497C5.17337 12.0745 6.01934 11.8932 6.82571 11.6371C14.6141 9.15829 17.4511 4.28474 17.5682 4.07829C17.6511 3.93158 17.6159 3.74629 17.4843 3.6409L16.1052 2.53279C15.9642 2.41935 15.9717 2.26858 15.981 2.20918C15.9908 2.14841 16.0324 2.00073 16.2049 1.93659C18.2137 1.18831 20.4854 0.768044 22.9567 0.687125H22.9651C23.1058 0.687125 23.2286 0.797262 23.2411 0.93655C23.4341 3.05879 23.4076 5.30039 23.1615 7.59822Z" fill="black"/>
</svg>
