<svg width="47" height="65" viewBox="0 0 47 65" fill="none" xmlns="http://www.w3.org/2000/svg">
<path d="M23.417 0C14.4557 0 7.16699 7.28867 7.16699 16.25V22.75C7.16699 24.1735 9.33366 24.1973 9.33366 22.75V16.25C9.33366 8.45867 15.6257 2.16667 23.417 2.16667C31.2083 2.16667 37.5003 8.45867 37.5003 16.25V22.75C37.5003 24.2147 39.667 24.1453 39.667 22.75V16.25C39.667 7.28867 32.3783 0 23.417 0ZM23.417 36.8333C20.4378 36.8333 18.0003 39.2708 18.0003 42.25C18.0003 43.9183 18.88 45.3808 20.167 46.397V50.9167C20.167 52.6977 21.636 54.1667 23.417 54.1667C25.198 54.1667 26.667 52.6977 26.667 50.9167V46.3927C27.954 45.3743 28.8337 43.9162 28.8337 42.25C28.8337 39.2708 26.3962 36.8333 23.417 36.8333ZM23.417 39C25.224 39 26.667 40.443 26.667 42.25C26.667 43.4113 26.0473 44.4752 25.042 45.0558C24.7062 45.2508 24.5003 45.6083 24.5003 45.9962V50.9145C24.5003 51.5342 24.0367 51.9978 23.417 51.9978C22.7973 51.9978 22.3337 51.5342 22.3337 50.9145V45.9962C22.3337 45.6105 22.1278 45.2508 21.792 45.058C20.7867 44.4773 20.167 43.4113 20.167 42.2478C20.167 40.4408 21.61 39 23.417 39ZM3.91699 26C2.13599 26 0.666992 27.469 0.666992 29.25V61.75C0.666992 63.531 2.13599 65 3.91699 65H42.917C44.698 65 46.167 63.531 46.167 61.75V29.25C46.167 27.469 44.698 26 42.917 26H3.91699ZM3.91699 28.1667H42.917C43.5367 28.1667 44.0003 28.6303 44.0003 29.25V61.75C44.0003 62.3697 43.5367 62.8333 42.917 62.8333H3.91699C3.29733 62.8333 2.83366 62.3697 2.83366 61.75V29.25C2.83366 28.6303 3.29733 28.1667 3.91699 28.1667Z" fill="black"/>
</svg>
