<svg width="60" height="44" viewBox="0 0 60 44" fill="none" xmlns="http://www.w3.org/2000/svg">
<path d="M0 0.5V2.791V41.209V43.5H60V41.209V2.791V0.5H0ZM36.625 22.564L31.179 28.036C30.517 28.651 29.481 28.65 28.847 28.062L23.374 22.564L23.422 22.517L3.647 2.5H56.366L36.577 22.518L36.625 22.564ZM20.524 22.533L2 40.355V3.923L20.524 22.533ZM21.934 23.95L27.457 29.499C28.166 30.16 29.076 30.492 29.99 30.492C30.913 30.492 31.84 30.153 32.571 29.472L38.067 23.95L56.304 41.5H3.686L21.934 23.95ZM39.477 22.534L58 3.922V40.355L39.477 22.534Z" fill="black"/>
</svg>
