<svg width="35" height="35" viewBox="0 0 35 35" fill="none" xmlns="http://www.w3.org/2000/svg">
<g clip-path="url(#clip0_12_489)">
<path d="M30.625 0H4.375C1.95891 0 0 1.95891 0 4.375V21.875C0 24.2911 1.95891 26.25 4.375 26.25H10.9375L19.6875 35V26.25H30.625C33.0411 26.25 35 24.2911 35 21.875V4.375C35 1.95891 33.0411 0 30.625 0ZM32.8125 21.875C32.8125 23.082 31.8309 24.0625 30.625 24.0625H17.5V29.7194L11.8434 24.0625H4.375C3.16914 24.0625 2.1875 23.082 2.1875 21.875V4.375C2.1875 3.16805 3.16914 2.1875 4.375 2.1875H30.625C31.8309 2.1875 32.8125 3.16805 32.8125 4.375V21.875ZM6.5625 8.75H28.4375V6.5625H6.5625V8.75ZM6.5625 13.125H28.4375V10.9375H6.5625V13.125ZM6.5625 17.5H19.6875V15.3125H6.5625V17.5Z" fill="black"/>
</g>
<defs>
<clipPath id="clip0_12_489">
<rect width="35" height="35" fill="white"/>
</clipPath>
</defs>
</svg>
