<svg width="63" height="63" viewBox="0 0 63 63" fill="none" xmlns="http://www.w3.org/2000/svg">
<path d="M31.4995 24.8539C32.7575 24.8539 33.7848 25.8786 33.7848 27.1365C33.7848 28.2844 34.7178 29.2147 35.8656 29.2147C37.0109 29.2147 37.9439 28.2844 37.9439 27.1365C37.9439 24.3166 36.1067 21.937 33.5778 21.067V19.8877C33.5778 18.7424 32.6474 17.8068 31.4995 17.8068C30.3491 17.8068 29.4187 18.7424 29.4187 19.8877V21.067C26.8897 21.937 25.0579 24.3166 25.0579 27.1365C25.0579 30.6928 27.9459 33.5808 31.4995 33.5808C32.7575 33.5808 33.7848 34.6081 33.7848 35.8661C33.7848 37.1266 32.7575 38.1513 31.4995 38.1513C30.2416 38.1513 29.2169 37.1266 29.2169 35.8661C29.2169 34.7182 28.2839 33.7852 27.1361 33.7852C25.9856 33.7852 25.0579 34.7182 25.0579 35.8661C25.0579 38.6859 26.8897 41.0629 29.4187 41.933V43.1123C29.4187 44.2628 30.3491 45.1958 31.4995 45.1958C32.6474 45.1958 33.5778 44.2628 33.5778 43.1123V41.933C36.1067 41.0629 37.9439 38.6859 37.9439 35.8661C37.9439 32.3124 35.0532 29.4218 31.4995 29.4218C30.2416 29.4218 29.2169 28.3971 29.2169 27.1365C29.2169 25.8786 30.2416 24.8539 31.4995 24.8539ZM48.9246 43.0494C49.944 43.5866 51.1993 43.1962 51.734 42.1846C53.4636 38.9166 54.3756 35.2214 54.3756 31.5C54.3756 18.8892 44.1104 8.6265 31.4995 8.6265C18.8861 8.6265 8.62346 18.8892 8.62346 31.5C8.62346 44.1134 18.8861 54.3761 31.4995 54.3761C35.1659 54.3761 38.8087 53.4903 42.0348 51.8104C43.0542 51.2836 43.4499 50.0231 42.9206 49.0062C42.3912 47.992 41.1359 47.5885 40.1138 48.1205C37.4433 49.5147 34.5422 50.2196 31.4995 50.2196C21.1792 50.2196 12.7799 41.8229 12.7799 31.5C12.7799 21.1823 21.1792 12.7829 31.4995 12.7829C41.8199 12.7829 50.2192 21.1823 50.2192 31.5C50.2192 34.5479 49.4697 37.5695 48.0597 40.2374C47.5199 41.2542 47.9077 42.5122 48.9246 43.0494ZM31.4995 0.303162C25.4746 0.303162 19.6252 2.02758 14.5855 5.28511C13.6185 5.90884 13.3433 7.1956 13.9671 8.16002C14.5934 9.12444 15.8749 9.39699 16.8446 8.7785C21.2054 5.95863 26.2791 4.46483 31.4995 4.46483C46.4087 4.46483 58.5347 16.5934 58.5347 31.5C58.5347 46.4091 46.4087 58.5377 31.4995 58.5377C16.5904 58.5377 4.46179 46.4091 4.46179 31.5C4.46179 26.3293 5.92676 21.3002 8.70208 16.963C9.32056 15.9933 9.03753 14.7065 8.06787 14.088C7.10083 13.4696 5.81407 13.7526 5.1982 14.7196C1.99571 19.7278 0.302734 25.5353 0.302734 31.5C0.302734 48.7049 14.2947 62.6968 31.4995 62.6968C48.7018 62.6968 62.6964 48.7049 62.6964 31.5C62.6964 14.3003 48.7018 0.303162 31.4995 0.303162Z" fill="black"/>
</svg>
