<svg width="39" height="39" viewBox="0 0 39 39" fill="none" xmlns="http://www.w3.org/2000/svg">
<path d="M38.6942 31.1582L33.6091 24.9182L33.428 13.9286C33.4339 13.8544 33.4339 13.7799 33.428 13.7057C31.8258 4.98643 26.7546 0 19.4962 0C11.8337 0 5.67579 5.57143 4.17115 13.6779C4.16361 13.7613 4.16361 13.8452 4.17115 13.9286L3.99004 25.0714L0.186651 31.3114C0.064374 31.5232 0 31.7634 0 32.0079C0 32.2524 0.064374 32.4925 0.186651 32.7043C0.304654 32.92 0.477663 33.1006 0.688101 33.2278C0.89854 33.355 1.13891 33.4243 1.38479 33.4286H13.9234C13.9234 34.9062 14.5106 36.3233 15.5556 37.3682C16.6007 38.413 18.0182 39 19.4962 39C20.9741 39 22.3916 38.413 23.4367 37.3682C24.4818 36.3233 25.0689 34.9062 25.0689 33.4286H37.6075C37.8701 33.4278 38.1272 33.3529 38.349 33.2124C38.5708 33.072 38.7485 32.8717 38.8614 32.6346C38.9757 32.3979 39.0207 32.1336 38.9912 31.8723C38.9616 31.611 38.8586 31.3634 38.6942 31.1582ZM19.4962 36.2143C18.7572 36.2143 18.0484 35.9208 17.5259 35.3984C17.0034 34.8759 16.7098 34.1674 16.7098 33.4286H22.2825C22.2825 34.1674 21.989 34.8759 21.4664 35.3984C20.9439 35.9208 20.2351 36.2143 19.4962 36.2143ZM3.85072 30.6429L6.63708 26.13C6.7623 25.9191 6.82958 25.6788 6.83213 25.4336L6.95752 14.0679C8.22531 7.3125 13.2547 2.78571 19.4962 2.78571C27.3398 2.78571 29.8475 9.75 30.6416 14.0679L30.8367 25.4336C30.8385 25.7478 30.9465 26.0521 31.1432 26.2971L34.6818 30.6429H3.85072Z" fill="black"/>
</svg>
