<svg width="55" height="54" viewBox="0 0 55 54" fill="none" xmlns="http://www.w3.org/2000/svg">
<path d="M39.3159 53.7736C37.2383 53.7582 35.1698 53.4974 33.1534 52.9966C26.1901 51.3166 19.0195 47.0546 12.9659 40.9957C6.91234 34.9368 2.64508 27.7649 0.964999 20.8082C-0.804063 13.4902 0.457656 7.22945 4.51375 3.17336L5.67187 2.01523C6.72263 0.966576 8.1465 0.377625 9.63101 0.377625C11.1155 0.377625 12.5394 0.966576 13.5902 2.01523L20.2454 8.66914C21.2947 9.71955 21.8841 11.1436 21.8841 12.6283C21.8841 14.113 21.2947 15.537 20.2454 16.5874L16.3141 20.5173C18.1987 23.8244 20.762 27.1341 23.7915 30.1635C26.8209 33.193 30.1333 35.7576 33.439 37.6422L37.3689 33.7109C37.8888 33.1909 38.506 32.7784 39.1853 32.4969C39.8646 32.2154 40.5927 32.0706 41.328 32.0706C42.0634 32.0706 42.7915 32.2154 43.4708 32.4969C44.1501 32.7784 44.7673 33.1909 45.2872 33.7109L51.9411 40.3648C52.9906 41.4149 53.5802 42.8387 53.5802 44.3233C53.5802 45.8079 52.9906 47.2318 51.9411 48.2818L50.7816 49.4399C47.9222 52.3047 43.9644 53.7736 39.3159 53.7736ZM9.63101 4.35937C9.41896 4.35832 9.20883 4.3996 9.01293 4.48079C8.81703 4.56197 8.6393 4.68144 8.49016 4.83218L7.3307 5.99031C4.29328 9.02773 3.40609 13.9591 4.8325 19.8679C6.34258 26.1273 10.23 32.6312 15.7776 38.1774C21.3252 43.7237 27.8277 47.6071 34.0884 49.1225C39.9986 50.5489 44.9273 49.6617 47.9647 46.6243L49.1228 45.4662C49.4254 45.1633 49.5954 44.7528 49.5954 44.3246C49.5954 43.8965 49.4254 43.486 49.1228 43.1831L42.4702 36.5292C42.1674 36.2266 41.7568 36.0566 41.3287 36.0566C40.9006 36.0566 40.49 36.2266 40.1872 36.5292L35.2054 41.511C34.9065 41.8101 34.5201 42.0063 34.1023 42.0713C33.6844 42.1362 33.2568 42.0665 32.8812 41.8723C28.7972 39.7605 24.68 36.6859 20.9745 32.9805C17.2691 29.275 14.2011 25.1605 12.0841 21.0765C11.8896 20.701 11.8197 20.2734 11.8844 19.8556C11.9491 19.4378 12.1451 19.0513 12.444 18.7523L17.4271 13.7705C17.7297 13.4676 17.8997 13.057 17.8997 12.6289C17.8997 12.2008 17.7297 11.7903 17.4271 11.4874L10.7732 4.83218C10.6236 4.6817 10.4456 4.56241 10.2495 4.48125C10.0534 4.40009 9.84322 4.35866 9.63101 4.35937Z" fill="black"/>
<path d="M44.4434 29.8235C43.915 29.8235 43.4083 29.6136 43.0347 29.24C42.6611 28.8664 42.4512 28.3597 42.4512 27.8313C42.4473 24.3364 41.0573 20.9857 38.5862 18.5143C36.115 16.0429 32.7645 14.6526 29.2695 14.6484C28.7412 14.6484 28.2345 14.4385 27.8608 14.0649C27.4872 13.6913 27.2773 13.1846 27.2773 12.6562C27.2773 12.1278 27.4872 11.6211 27.8608 11.2475C28.2345 10.8739 28.7412 10.664 29.2695 10.664C38.7351 10.664 46.4355 18.3671 46.4355 27.8313C46.4355 28.3597 46.2257 28.8664 45.852 29.24C45.4784 29.6136 44.9717 29.8235 44.4434 29.8235Z" fill="black"/>
<path d="M52.8637 29.8235C52.3353 29.8235 51.8286 29.6136 51.455 29.24C51.0814 28.8664 50.8715 28.3597 50.8715 27.8313C50.8715 15.9194 41.1762 6.22803 29.2695 6.22803C28.7412 6.22803 28.2345 6.01814 27.8608 5.64453C27.4872 5.27092 27.2773 4.7642 27.2773 4.23584C27.2773 3.70748 27.4872 3.20076 27.8608 2.82715C28.2345 2.45354 28.7412 2.24365 29.2695 2.24365C43.3782 2.24365 54.8559 13.7226 54.8559 27.8313C54.8559 28.3597 54.646 28.8664 54.2724 29.24C53.8988 29.6136 53.392 29.8235 52.8637 29.8235Z" fill="black"/>
</svg>
