<svg width="29" height="34" viewBox="0 0 29 34" fill="none" xmlns="http://www.w3.org/2000/svg">
<path d="M0.0701993 6.33859L8.7612 23.411L9.84043 25.5298L13.9912 33.6865C14.0394 33.7815 14.1101 33.8608 14.1959 33.9159C14.2817 33.9711 14.3796 34.0002 14.4792 34.0002C14.5789 34.0002 14.6767 33.9711 14.7625 33.9159C14.8484 33.8608 14.9191 33.7815 14.9673 33.6865L28.8928 6.33859C28.9585 6.20972 28.979 6.05922 28.9505 5.91511C28.922 5.771 28.8464 5.6431 28.7378 5.55521C28.6682 5.49865 26.9905 4.146 24.3946 2.77832C21.9911 1.51089 18.3193 0 14.4818 0C12.3641 0 8.92476 0.48191 4.56842 2.77832C1.97051 4.146 0.294848 5.49865 0.22522 5.55521C0.116642 5.6431 0.0410588 5.771 0.0125412 5.91511C-0.0159764 6.05922 0.00451445 6.20972 0.0701993 6.33859ZM11.1666 25.62C11.6678 25.4137 12.1223 25.0921 12.4993 24.6772C12.8762 24.2624 13.1668 23.7638 13.3513 23.2156C13.5358 22.6673 13.6097 22.0822 13.5682 21.5C13.5267 20.9178 13.3707 20.3521 13.1108 19.8415C12.8509 19.3309 12.4931 18.8873 12.0619 18.5409C11.6306 18.1944 11.136 17.9533 10.6116 17.8338C10.0873 17.7144 9.54545 17.7194 9.02303 17.8486C8.50062 17.9778 8.00985 18.2281 7.58409 18.5825L3.14039 9.86018C5.71465 8.17958 9.99873 5.39553 14.4818 5.39553C18.965 5.39553 23.249 8.17958 25.8233 9.86018L14.4812 32.1369L11.1666 25.62ZM9.41741 22.1829L8.13389 19.6609C8.4279 19.3829 8.77514 19.1799 9.15028 19.0668C9.52541 18.9537 9.91897 18.9333 10.3023 19.0071C10.6855 19.0809 11.0489 19.2471 11.3658 19.4934C11.6827 19.7398 11.9451 20.0601 12.1339 20.4311C12.3228 20.8022 12.4333 21.2144 12.4574 21.6379C12.4815 22.0614 12.4185 22.4854 12.2732 22.879C12.1278 23.2726 11.9037 23.6258 11.6171 23.913C11.3306 24.2001 10.9888 24.4139 10.6168 24.5387L9.41741 22.1829ZM1.29066 6.22974C2.81984 5.10123 8.51619 1.21731 14.4818 1.21731C20.4475 1.21731 26.1432 5.09837 27.673 6.22974L26.3659 8.79755C23.6885 7.04749 19.254 4.17823 14.4818 4.17823C9.70971 4.17823 5.27521 7.04749 2.59782 8.7954L1.29066 6.22974Z" fill="black"/>
<path d="M13.9253 13.4319C13.9253 14.3363 14.1713 15.2204 14.6322 15.9724C15.0932 16.7244 15.7483 17.3105 16.5148 17.6566C17.2813 18.0027 18.1247 18.0933 18.9384 17.9168C19.7521 17.7404 20.4995 17.3049 21.0862 16.6653C21.6728 16.0258 22.0723 15.211 22.2342 14.324C22.396 13.437 22.313 12.5175 21.9955 11.682C21.678 10.8464 21.1403 10.1322 20.4505 9.62978C19.7607 9.12732 18.9497 8.85913 18.12 8.85913C17.0079 8.86046 15.9417 9.34266 15.1553 10.1999C14.3688 11.0572 13.9265 12.2195 13.9253 13.4319ZM15.042 13.4319C15.0418 12.7682 15.2223 12.1194 15.5604 11.5675C15.8985 11.0156 16.3792 10.5854 16.9417 10.3313C17.5041 10.0773 18.123 10.0107 18.7201 10.1401C19.3173 10.2695 19.8658 10.589 20.2963 11.0583C20.7269 11.5275 21.0201 12.1254 21.1389 12.7763C21.2577 13.4272 21.1968 14.1019 20.9639 14.7151C20.7309 15.3283 20.3364 15.8524 19.8302 16.2211C19.324 16.5898 18.7289 16.7867 18.12 16.7867C17.3041 16.7857 16.5217 16.432 15.9447 15.8031C15.3677 15.1742 15.043 14.3214 15.042 13.4319Z" fill="black"/>
<path d="M10.404 12.7158C10.4041 12.2015 10.2643 11.6987 10.0023 11.271C9.74024 10.8433 9.36775 10.51 8.93191 10.3131C8.49606 10.1162 8.01645 10.0647 7.55373 10.165C7.09101 10.2653 6.66596 10.5129 6.33236 10.8766C5.99877 11.2402 5.77159 11.7036 5.67959 12.208C5.58758 12.7124 5.63487 13.2353 5.81547 13.7104C5.99607 14.1855 6.30188 14.5916 6.6942 14.8772C7.08653 15.1629 7.54775 15.3152 8.01953 15.3151C8.65165 15.3142 9.25763 15.04 9.70461 14.5527C10.1516 14.0655 10.4031 13.4049 10.404 12.7158ZM9.28728 12.7158C9.28728 12.9893 9.21287 13.2567 9.07347 13.4841C8.93407 13.7115 8.73593 13.8887 8.50412 13.9933C8.27231 14.098 8.01724 14.1253 7.77118 14.0719C7.52511 14.0185 7.2991 13.8867 7.12174 13.6933C6.94438 13.4998 6.82362 13.2534 6.77476 12.9851C6.72589 12.7168 6.7511 12.4388 6.8472 12.1862C6.94331 11.9335 7.10598 11.7176 7.31466 11.5658C7.52333 11.4139 7.76863 11.3329 8.01953 11.3331C8.35576 11.3335 8.67812 11.4793 8.91581 11.7385C9.15351 11.9978 9.28711 12.3493 9.28728 12.7158Z" fill="black"/>
<path d="M17.8496 21.9115C17.9195 21.9357 17.9844 21.9746 18.0405 22.026C18.0966 22.0775 18.1429 22.1405 18.1767 22.2114C18.2105 22.2823 18.2311 22.3599 18.2375 22.4395C18.2438 22.5191 18.2356 22.5994 18.2135 22.6756C18.1914 22.7518 18.1557 22.8225 18.1085 22.8837C18.0613 22.9449 18.0035 22.9953 17.9384 23.0322C17.8734 23.069 17.8023 23.0915 17.7292 23.0984C17.6561 23.1053 17.5825 23.0964 17.5126 23.0723C17.1314 22.9416 16.7183 22.9809 16.3636 23.1816C16.009 23.3822 15.7417 23.7278 15.6202 24.1428C15.598 24.219 15.5623 24.2897 15.5151 24.3509C15.4678 24.412 15.41 24.4625 15.3449 24.4993C15.2798 24.5361 15.2087 24.5585 15.1356 24.5654C15.0625 24.5722 14.9889 24.5633 14.919 24.5391C14.8491 24.515 14.7842 24.476 14.7281 24.4245C14.672 24.373 14.6257 24.31 14.592 24.239C14.5582 24.168 14.5376 24.0905 14.5313 24.0108C14.5251 23.9312 14.5333 23.8509 14.5554 23.7747C14.7663 23.052 15.2316 22.45 15.8492 22.1007C16.4667 21.7514 17.1861 21.6834 17.8496 21.9115Z" fill="black"/>
<path d="M18.8958 10.8534C18.954 10.8734 19.0025 10.9178 19.0306 10.9769C19.0588 11.0359 19.0643 11.1047 19.0459 11.1681C19.0275 11.2315 18.9868 11.2844 18.9326 11.3151C18.8785 11.3458 18.8154 11.3518 18.7572 11.3317C18.2483 11.1564 17.6964 11.2084 17.2227 11.4762C16.7489 11.744 16.392 12.2058 16.2302 12.7603C16.2119 12.8237 16.1711 12.8766 16.117 12.9073C16.0628 12.9379 15.9997 12.9439 15.9415 12.9239C15.8834 12.9038 15.8349 12.8594 15.8067 12.8004C15.7786 12.7414 15.7731 12.6726 15.7914 12.6092C15.9902 11.9281 16.4286 11.3607 17.0106 11.0315C17.5926 10.7024 18.2705 10.6383 18.8958 10.8534Z" fill="black"/>
<path d="M10.4769 19.5421C11.0369 19.8024 11.4794 20.2942 11.7072 20.9097C11.935 21.5252 11.9296 22.2141 11.6921 22.8252C11.6744 22.8704 11.6449 22.909 11.6073 22.9361C11.5697 22.9632 11.5256 22.9777 11.4805 22.9777C11.4426 22.9777 11.4052 22.9674 11.3717 22.9478C11.3382 22.9282 11.3098 22.8999 11.2888 22.8653C11.2679 22.8308 11.2551 22.7911 11.2516 22.7499C11.2482 22.7086 11.2542 22.6671 11.269 22.629C11.459 22.1404 11.4635 21.5898 11.2816 21.0976C11.0998 20.6054 10.7464 20.2118 10.2988 20.0032C10.2705 19.9908 10.2447 19.9723 10.223 19.9488C10.2012 19.9254 10.184 19.8975 10.1723 19.8667C10.1606 19.8359 10.1546 19.8029 10.1548 19.7695C10.1549 19.7362 10.1612 19.7032 10.1731 19.6726C10.1851 19.6419 10.2026 19.6142 10.2245 19.5909C10.2464 19.5677 10.2724 19.5495 10.3008 19.5373C10.3293 19.5252 10.3597 19.5193 10.3903 19.5202C10.4208 19.521 10.4509 19.5284 10.4788 19.5421H10.4769Z" fill="black"/>
<path d="M11.6264 11.3331C11.5732 11.3332 11.5203 11.3247 11.4694 11.3081C11.399 11.2857 11.3334 11.2484 11.2762 11.1984C11.2191 11.1483 11.1715 11.0865 11.1363 11.0164C11.1011 10.9463 11.0789 10.8693 11.0711 10.7898C11.0632 10.7104 11.0697 10.63 11.0904 10.5533C11.1674 10.2632 11.1357 9.95152 11.0022 9.6868C10.8687 9.42208 10.6443 9.22588 10.3783 9.14126C10.3079 9.11888 10.2423 9.08161 10.1851 9.03157C10.1279 8.98153 10.0804 8.9197 10.0451 8.84962C10.0098 8.77953 9.9876 8.70257 9.97963 8.62311C9.97166 8.54366 9.97812 8.46327 9.99865 8.38653C10.0192 8.3098 10.0534 8.23823 10.0993 8.1759C10.1452 8.11357 10.2019 8.06171 10.2662 8.02328C10.3305 7.98485 10.4011 7.9606 10.474 7.95191C10.5469 7.94322 10.6206 7.95027 10.691 7.97265C11.241 8.14826 11.7046 8.55464 11.9799 9.10254C12.2553 9.65043 12.32 10.2951 12.1597 10.8949C12.126 11.0209 12.0559 11.1316 11.9598 11.2105C11.8637 11.2895 11.7467 11.3325 11.6264 11.3331Z" fill="black"/>
</svg>
