<svg width="41" height="50" viewBox="0 0 41 50" fill="none" xmlns="http://www.w3.org/2000/svg">
<path d="M20.0783 26.1274C23.1003 26.1247 26.0279 25.0744 28.3624 23.1553C30.6969 21.2363 32.2938 18.5672 32.8812 15.6028C33.4686 12.6385 33.01 9.56213 31.5837 6.8979C30.1574 4.23367 27.8515 2.14634 25.0588 0.991501C22.2662 -0.163342 19.1595 -0.314263 16.2681 0.564445C13.3767 1.44315 10.8793 3.29714 9.20146 5.81057C7.5236 8.324 6.76904 11.3414 7.06631 14.3488C7.36358 17.3561 8.69429 20.1674 10.8318 22.3037C12.0452 23.5186 13.4867 24.4819 15.0735 25.1381C16.6603 25.7943 18.3612 26.1305 20.0783 26.1274ZM12.9308 5.91746C14.5842 4.2638 16.7599 3.23464 19.0871 3.00533C21.4144 2.77602 23.7491 3.36075 25.6935 4.65988C27.6379 5.95902 29.0717 7.89218 29.7506 10.13C30.4295 12.3677 30.3114 14.7717 29.4165 16.9322C28.5216 19.0927 26.9053 20.876 24.8429 21.9783C22.7805 23.0807 20.3997 23.4338 18.1062 22.9775C15.8126 22.5212 13.7482 21.2838 12.2648 19.4761C10.7813 17.6684 9.9706 15.4022 9.97071 13.0637C9.96907 11.7363 10.2297 10.4216 10.7377 9.19523C11.2457 7.96885 11.991 6.85493 12.9308 5.91746Z" fill="#262626"/>
<path d="M20.0778 28.1989C9.00705 28.1989 0 37.2046 0 48.2753C0 48.4702 0.0383832 48.6632 0.112958 48.8432C0.187534 49.0233 0.29684 49.1868 0.434637 49.3246C0.572434 49.4624 0.736023 49.5717 0.916064 49.6463C1.0961 49.7209 1.28907 49.7593 1.48394 49.7593H38.6703C39.0638 49.7593 39.4413 49.6029 39.7196 49.3246C39.9979 49.0463 40.1542 48.6689 40.1542 48.2753C40.1542 37.2046 31.1471 28.1989 20.0778 28.1989ZM3.03201 46.7914C3.78576 38.05 11.1453 31.1668 20.0778 31.1668C29.0102 31.1668 36.3684 38.05 37.1222 46.7914H3.03201Z" fill="#262626"/>
</svg>
