<svg width="86" height="86" viewBox="0 0 86 86" fill="none" xmlns="http://www.w3.org/2000/svg">
<path d="M42.5783 85.946C66.0937 85.946 85.1566 66.7063 85.1566 42.973C85.1566 19.2397 66.0937 0 42.5783 0C19.063 0 0 19.2397 0 42.973C0 66.7063 19.063 85.946 42.5783 85.946Z" fill="#52B36E"/>
<path d="M85.0539 45.9637C85.0198 45.9121 84.9687 45.8606 84.9176 45.809C77.509 38.3489 70.1174 30.8888 62.7258 23.4115C62.266 22.9474 61.755 22.638 61.1419 22.4489C55.7259 20.8503 50.31 19.2345 44.894 17.6187C43.4464 17.189 41.9987 17.189 40.551 17.6187C37.826 18.4438 35.101 19.2517 32.376 20.0596C29.668 20.8675 26.9771 21.6754 24.2691 22.4661C23.673 22.638 23.162 22.9302 22.7533 23.3943C22.2083 24.0303 22.0039 24.7694 22.0039 25.5945C22.0039 29.7543 22.0039 33.8969 22.0039 38.0567C22.0039 38.9849 22.0209 39.9303 22.055 40.8585C22.1402 43.0244 22.4638 45.1558 23.0088 47.2357C24.4735 52.8738 27.2836 57.7211 31.3541 61.8465C38.7457 69.3066 46.1543 76.7839 53.5459 84.244C53.6141 84.3128 53.6651 84.3816 53.6992 84.4503C70.9179 79.7577 83.7936 64.4765 85.0539 45.9637Z" fill="#2CAB61"/>
<path d="M42.5798 68.7566C42.2051 68.7566 41.8304 68.6879 41.4727 68.5332C35.7502 66.1783 30.8793 62.2076 27.3708 57.0508C23.7772 51.7565 21.8867 45.5684 21.8867 39.1397V25.2336C21.8867 23.9444 22.7383 22.7928 23.9645 22.4146L40.5871 17.4641C41.8815 17.0859 43.244 17.0859 44.5384 17.4641L61.161 22.4146C62.3872 22.7756 63.2388 23.9444 63.2388 25.2336V39.1397C63.2388 45.5684 61.3483 51.7737 57.7547 57.0508C54.2462 62.2076 49.3753 66.1783 43.6528 68.5332C43.3292 68.6879 42.9545 68.7566 42.5798 68.7566ZM42.5798 19.544C42.137 19.544 41.6942 19.6128 41.2684 19.7331L24.6458 24.6836C24.4074 24.7523 24.237 24.993 24.237 25.2508V39.1569C24.237 45.1215 25.9913 50.8455 29.3124 55.7444C32.5654 60.523 37.0787 64.2015 42.3754 66.3845C42.5117 66.4361 42.682 66.4361 42.8182 66.3845C48.115 64.2015 52.6283 60.523 55.8813 55.7444C59.2024 50.8455 60.9566 45.1215 60.9566 39.1569V25.2508C60.9566 24.993 60.7863 24.7695 60.5478 24.6836L43.9253 19.7331C43.4654 19.5956 43.0226 19.544 42.5798 19.544Z" fill="white"/>
</svg>
