<svg width="31" height="35" viewBox="0 0 31 35" fill="none" xmlns="http://www.w3.org/2000/svg">
<path d="M15.5 0.4375C7.45625 0.4375 0.875 6.89687 0.875 14.9406V19.2062C0.875 19.3281 0.875 19.3281 0.875 19.45C0.875 19.5719 0.875 19.8156 0.875 19.9375C0.875 23.35 3.55625 26.0312 6.96875 26.0312C7.7 26.0312 8.1875 25.5438 8.1875 24.8125V15.0625C8.1875 14.3313 7.7 13.8438 6.96875 13.8438C5.62813 13.8438 4.2875 14.3313 3.3125 15.0625V14.8188C3.3125 8.2375 8.79688 2.875 15.5 2.875C22.2031 2.875 27.6875 8.2375 27.6875 14.9406V15.0625C26.7125 14.3313 25.3719 13.8438 24.0312 13.8438C23.3 13.8438 22.8125 14.3313 22.8125 15.0625V24.8125C22.8125 25.5438 23.3 26.0312 24.0312 26.0312C24.8844 26.0312 25.7375 25.7875 26.4688 25.5438C25.25 28.1031 23.0562 30.0531 20.375 31.15C20.375 31.0281 20.375 31.0281 20.375 30.9062C20.375 30.175 19.8875 29.6875 19.1562 29.6875H15.5C14.7688 29.6875 14.2812 30.175 14.2812 30.9062V33.3438C14.2812 34.075 14.7688 34.5625 15.5 34.5625C23.5438 34.5625 30.125 28.225 30.125 20.425V19.2062V16.2812V14.9406C30.125 6.89687 23.5438 0.4375 15.5 0.4375Z" fill="black"/>
</svg>
