<svg width="89" height="86" viewBox="0 0 89 86" fill="none" xmlns="http://www.w3.org/2000/svg">
<path d="M86.6404 14.8207C85.5158 11.9961 84.0164 9.60355 81.5627 7.21097C79.1091 4.81839 76.6554 3.35626 73.7588 2.25966C70.9644 1.19629 67.7269 0.46522 63.0582 0.265838C58.3554 0.0664565 56.8559 0 44.8603 0C32.8648 0 31.3653 0.0332262 26.6625 0.265838C21.9597 0.46522 18.7563 1.19629 15.9619 2.25966C13.0652 3.35626 10.6116 4.81839 8.15794 7.21097C5.7043 9.60355 4.20485 11.9961 3.08027 14.8207C1.98976 17.5456 1.24004 20.7025 1.03557 25.255C0.831097 29.8408 0.762939 31.3029 0.762939 43C0.762939 54.6971 0.797019 56.1592 1.03557 60.745C1.24004 65.3308 1.98976 68.4544 3.08027 71.1793C4.20485 74.0039 5.7043 76.3965 8.15794 78.789C10.6116 81.1816 13.0652 82.6437 15.9619 83.7403C18.7563 84.8037 21.9938 85.5348 26.6625 85.7342C31.3653 85.9335 32.8648 86 44.8603 86C56.8559 86 58.3554 85.9668 63.0582 85.7342C67.761 85.5348 70.9644 84.8037 73.7588 83.7403C76.6554 82.6437 79.1091 81.1816 81.5627 78.789C84.0164 76.3965 85.5158 74.0039 86.6404 71.1793C87.7309 68.4544 88.4806 65.2975 88.6851 60.745C88.8896 56.1592 88.9577 54.6971 88.9577 43C88.9577 31.3029 88.9237 29.8408 88.6851 25.255C88.4806 20.6692 87.7309 17.5456 86.6404 14.8207ZM80.7449 60.3794C80.5404 64.5665 79.8247 66.8594 79.2113 68.3547C78.4275 70.3485 77.4393 71.8107 75.9057 73.306C74.3722 74.8014 72.9068 75.7318 70.828 76.5294C69.2604 77.1275 66.9431 77.8253 62.6492 78.0247C57.9805 78.2241 56.6174 78.2906 44.8263 78.2906C33.0351 78.2906 31.6379 78.2573 27.0033 78.0247C22.7094 77.8253 20.358 77.1275 18.8245 76.5294C16.7798 75.7651 15.2803 74.8014 13.7468 73.306C12.2133 71.8107 11.2591 70.3818 10.4412 68.3547C9.82779 66.8261 9.11214 64.5665 8.90767 60.3794C8.7032 55.8269 8.63504 54.4645 8.63504 43C8.63504 31.5355 8.66912 30.1399 8.90767 25.6206C9.11214 21.4335 9.82779 19.1407 10.4412 17.6453C11.225 15.6515 12.2133 14.1893 13.7468 12.694C15.2803 11.1986 16.7457 10.2682 18.8245 9.47063C20.3921 8.87249 22.7094 8.17465 27.0033 7.97527C31.672 7.77589 33.0692 7.70943 44.8263 7.70943C56.5833 7.70943 58.0146 7.74266 62.6492 7.97527C66.9431 8.17465 69.2945 8.87249 70.828 9.47063C72.8727 10.2349 74.3722 11.1986 75.9057 12.694C77.4393 14.1893 78.3934 15.6182 79.2113 17.6453C79.8247 19.1739 80.5404 21.4335 80.7449 25.6206C80.9493 30.1731 81.0175 31.5355 81.0175 43C81.0175 54.4645 80.9493 55.8601 80.7449 60.3794Z" fill="url(#paint0_radial_8_119)"/>
<path d="M44.8264 20.9019C32.3197 20.9019 22.1643 30.8045 22.1643 43C22.1643 55.1955 32.3197 65.0981 44.8264 65.0981C57.3332 65.0981 67.4885 55.1955 67.4885 43C67.4885 30.8045 57.3332 20.9019 44.8264 20.9019ZM44.8264 57.3555C36.7158 57.3555 30.1046 50.942 30.1046 43C30.1046 35.0912 36.6817 28.6445 44.8264 28.6445C52.9711 28.6445 59.5483 35.058 59.5483 43C59.5483 50.9088 52.9371 57.3555 44.8264 57.3555Z" fill="url(#paint1_radial_8_119)"/>
<path d="M68.3747 25.1886C71.2919 25.1886 73.6568 22.8826 73.6568 20.0379C73.6568 17.1933 71.2919 14.8872 68.3747 14.8872C65.4574 14.8872 63.0925 17.1933 63.0925 20.0379C63.0925 22.8826 65.4574 25.1886 68.3747 25.1886Z" fill="url(#paint2_radial_8_119)"/>
<defs>
<radialGradient id="paint0_radial_8_119" cx="0" cy="0" r="1" gradientUnits="userSpaceOnUse" gradientTransform="translate(26.3468 85.8203) scale(88.9816 86.7672)">
<stop stop-color="#FFD776"/>
<stop offset="0.2463" stop-color="#F3A554"/>
<stop offset="0.3793" stop-color="#F15C3C"/>
<stop offset="0.5394" stop-color="#D94867"/>
<stop offset="0.6995" stop-color="#C32F87"/>
<stop offset="0.9122" stop-color="#7D63A7"/>
<stop offset="0.9852" stop-color="#5C6CB3"/>
</radialGradient>
<radialGradient id="paint1_radial_8_119" cx="0" cy="0" r="1" gradientUnits="userSpaceOnUse" gradientTransform="translate(35.337 64.9882) scale(45.6932 44.5561)">
<stop stop-color="#FFD776"/>
<stop offset="0.2463" stop-color="#F3A554"/>
<stop offset="0.3793" stop-color="#F15C3C"/>
<stop offset="0.607" stop-color="#D94867"/>
<stop offset="0.8346" stop-color="#C32F87"/>
<stop offset="0.9577" stop-color="#7D63A7"/>
<stop offset="1" stop-color="#5C6CB3"/>
</radialGradient>
<radialGradient id="paint2_radial_8_119" cx="0" cy="0" r="1" gradientUnits="userSpaceOnUse" gradientTransform="translate(66.1672 25.1655) scale(10.6778 10.412)">
<stop stop-color="#5F6DB3"/>
<stop offset="1" stop-color="#5C6CB3"/>
</radialGradient>
</defs>
</svg>
