<svg width="90" height="86" viewBox="0 0 90 86" fill="none" xmlns="http://www.w3.org/2000/svg">
<g clip-path="url(#clip0_8_114)">
<path d="M45.0417 86C69.396 86 89.1391 66.7482 89.1391 43C89.1391 19.2518 69.396 0 45.0417 0C20.6875 0 0.944336 19.2518 0.944336 43C0.944336 66.7482 20.6875 86 45.0417 86Z" fill="url(#paint0_linear_8_114)"/>
<path d="M17.3673 45.1032C22.5222 42.3344 28.2765 40.0235 33.6531 37.7008C42.9029 33.8964 52.1895 30.1579 61.5697 26.6774C63.3948 26.0843 66.674 25.5044 66.9955 28.1417C66.8195 31.8748 66.0952 35.5861 65.5984 39.2974C64.3374 47.4588 62.88 55.5922 61.4587 63.7267C60.9691 66.4363 57.4881 67.839 55.2608 66.105C49.9082 62.5793 44.5143 59.0881 39.23 55.4808C37.499 53.7656 39.1041 51.3026 40.6501 50.0778C45.0587 45.8412 49.7342 42.2418 53.9124 37.7863C55.0394 35.1323 51.7094 37.369 50.611 38.0543C44.5755 42.1099 38.6878 46.4131 32.3245 49.9775C29.0742 51.7222 25.2858 50.2312 22.0369 49.2576C19.1239 48.0815 14.8555 46.8965 17.3673 45.1032Z" fill="white"/>
</g>
<defs>
<linearGradient id="paint0_linear_8_114" x1="34.0225" y1="3.5862" x2="12.8964" y2="54.1356" gradientUnits="userSpaceOnUse">
<stop stop-color="#37AEE2"/>
<stop offset="1" stop-color="#1E96C8"/>
</linearGradient>
<clipPath id="clip0_8_114">
<rect width="88.1948" height="86" fill="white" transform="translate(0.944336)"/>
</clipPath>
</defs>
</svg>
